# xmcd
#
# Track frame offsets:
#	150
#	14160
#	25350
#	41083
#	56703
#	78568
#	91901
#	104876
#	124836
#	140973
#	160401
#	181404
#
# Disc length: 2589 seconds
#
# Revision: 0
# Processed by: cddbd v1.5.2PL0 Copyright (c) Steve Scherf et al.
# Submitted via: EasyCDDAExtractor 15.3.0.1
#
DISCID=b50a1b0c
DTITLE=The Staple Singers - The Best of th Staple Singers
DYEAR=1996
DGENRE=Soul
TTITLE0=Heavy makes you happy
TTITLE1=Long walk to DC
TTITLE2=The world
TTITLE3=You've got to earn it
TTITLE4=Respecto yourself
TTITLE5=I see it
TTITLE6=We'll get over
TTITLE7=I'll take you there
TTITLE8=Oh la de da
TTITLE9=Are you sure
TTITLE10=This old town (People in this town)
TTITLE11=Slow train
EXTD=
EXTT0=
EXTT1=
EXTT2=
EXTT3=
EXTT4=
EXTT5=
EXTT6=
EXTT7=
EXTT8=
EXTT9=
EXTT10=
EXTT11=
PLAYORDER=
